<svg
  xmlns="http://www.w3.org/2000/svg"
  viewBox="0 0 100 100"
  height="1"
  width="1"
  fill="#090909"
  stroke="#090909"
>
  <path
    d="M 50,60.114071 14.600729,95.513284 Q 12.614071,97.5 9.5436914,97.5 6.473375,97.5 4.4866571,95.513284 2.5,93.526625 2.5,90.45631 2.5,87.38593 4.4866571,85.39927 L 39.885929,50 4.4866571,14.600729 Q 2.5,12.614071 2.5,9.5436914 2.5,6.473375 4.4866571,4.4866571 6.473375,2.5 9.5436914,2.5 12.614071,2.5 14.600729,4.4866571 L 50,39.885929 85.39927,4.4866571 Q 87.38593,2.5 90.45631,2.5 93.526625,2.5 95.513284,4.4866571 97.5,6.473375 97.5,9.5436914 q 0,3.0703796 -1.986716,5.0570376 L 60.114071,50 95.513284,85.39927 Q 97.5,87.38593 97.5,90.45631 q 0,3.070315 -1.986716,5.056974 Q 93.526625,97.5 90.45631,97.5 q -3.07038,0 -5.05704,-1.986716 z"
    style="stroke-width:0.95"
  />
</svg>
