<svg
  xmlns="http://www.w3.org/2000/svg"
  viewBox="0 0 100 100"
  height="1"
  width="1"
  fill="#f2f2f2"
>
  <path
    d="m 50,69.930065 q 8.3042,0 14.11713,-5.81293 5.81294,-5.81294 5.81294,-14.11714 0,-8.30419 -5.81294,-14.11713 Q 58.3042,30.069925 50,30.069925 q -8.304196,0 -14.117133,5.81294 -5.812937,5.81294 -5.812937,14.11713 0,8.3042 5.812937,14.11714 5.812937,5.81293 14.117133,5.81293 z m 0,-7.97202 q -4.982517,0 -8.47028,-3.48777 -3.487762,-3.48776 -3.487762,-8.47028 0,-4.98251 3.487762,-8.47028 3.487763,-3.48776 8.47028,-3.48776 4.98252,0 8.47028,3.48776 3.48776,3.48777 3.48776,8.47028 0,4.98252 -3.48776,8.47028 -3.48776,3.48777 -8.47028,3.48777 z m 0,21.25874 q -14.83683,0 -27.071678,-7.97203 Q 10.693473,67.272725 3.607226,54.207455 3.053613,53.210955 2.776807,52.159085 2.5,51.107225 2.5,49.999995 q 0,-1.10722 0.276807,-2.15909 0.276806,-1.05186 0.830419,-2.04837 7.086247,-13.06526 19.321096,-21.03729 Q 35.16317,16.783215 50,16.783215 q 14.83683,0 27.07168,7.97203 12.23485,7.97203 19.32109,21.03729 0.55362,0.99651 0.83042,2.04837 0.27681,1.05187 0.27681,2.15909 0,1.10723 -0.27681,2.15909 -0.2768,1.05187 -0.83042,2.04837 -7.08624,13.06527 -19.32109,21.0373 Q 64.83683,83.216785 50,83.216785 Z m 0,-33.21679 z m 0,24.35898 q 12.51166,0 22.97494,-6.588 10.46329,-6.58799 15.99942,-17.77098 Q 83.43823,38.817015 72.97494,32.229015 62.51166,25.641025 50,25.641025 q -12.511655,0 -22.974942,6.58799 -10.463286,6.588 -15.999417,17.77098 5.536131,11.18299 15.999417,17.77098 10.463287,6.588 22.974942,6.588 z"
    style="stroke-width:0.110723" 
	/>
</svg>
