<svg
  xmlns="http://www.w3.org/2000/svg"
  viewBox="0 0 100 100"
  height="1"
  width="1"
  fill="#f2f2f2"
>
  <path
    d="m 63.88631,36.0826 q 3.19606,3.19605 4.68388,7.27378 1.48781,4.07773 1.04698,8.37587 0,1.65313 -1.2123,2.81033 -1.21229,1.15719 -2.86543,1.15719 -1.65313,0 -2.81032,-1.15719 -1.15719,-1.1572 -1.15719,-2.81033 0.55104,-2.86543 -0.33063,-5.51044 -0.88167,-2.64501 -2.75522,-4.51856 -1.87355,-1.87355 -4.51856,-2.86543 -2.645014,-0.99188 -5.620652,-0.44084 -1.653133,0 -2.810325,-1.21229 -1.157193,-1.2123 -1.157193,-2.86543 0,-1.65313 1.157193,-2.81033 1.157192,-1.15719 2.810325,-1.15719 4.187932,-0.44084 8.265662,1.04698 4.07773,1.48782 7.27378,4.68388 z M 49.889791,25.83318 q -2.093967,0 -4.077726,0.16531 -1.983759,0.16532 -3.967517,0.60615 -1.87355,0.33063 -3.361369,-0.55104 -1.487819,-0.88167 -2.038863,-2.64502 -0.551045,-1.76334 0.38573,-3.41647 0.936775,-1.65313 2.700116,-1.98376 2.534803,-0.55104 5.12471,-0.77146 2.589908,-0.22042 5.234919,-0.22042 15.098609,0 27.607309,7.93504 12.5087,7.93503 19.12123,21.38051 0.44083,0.88167 0.66125,1.81844 0.22042,0.93678 0.22042,1.92866 0,0.99188 -0.16531,1.92865 -0.16532,0.93678 -0.60615,1.81845 -1.98376,4.40835 -4.90429,8.26566 -2.92054,3.85731 -6.44722,7.05336 -1.32251,1.2123 -3.08585,0.99188 -1.76334,-0.22041 -2.86543,-1.76334 -1.10208,-1.54292 -0.93677,-3.36137 0.16531,-1.81844 1.48782,-3.03074 2.64501,-2.5348 4.84919,-5.51044 2.20417,-2.97564 3.8573,-6.39211 Q 83.17285,38.94803 72.75812,32.3906 62.34339,25.83318 49.889791,25.83318 Z m 0,57.30858 q -14.767981,0 -27.00116,-7.99014 Q 10.655452,67.16148 3.602088,54.15684 3.051044,53.27517 2.775522,52.22819 2.5,51.18121 2.5,50.07912 q 0,-1.10209 0.220418,-2.09397 0.220417,-0.99188 0.771461,-1.98376 2.204177,-4.40835 5.12471,-8.43097 2.920534,-4.02262 6.667634,-7.32889 L 6.136891,20.98399 Q 4.924594,19.66148 4.979698,17.84304 5.034798,16.02459 6.2471,14.8123 7.459397,13.6 9.332947,13.6 q 1.87355,0 3.085847,1.2123 L 87.36079,89.75429 q 1.2123,1.2123 1.2674,3.03074 0.0551,1.81845 -1.2674,3.14096 -1.2123,1.21229 -3.08585,1.21229 -1.87355,0 -3.08584,-1.21229 L 65.75986,80.71717 q -3.85731,1.2123 -7.82483,1.81844 -3.96751,0.60615 -8.045239,0.60615 z M 21.455916,36.41323 q -3.196055,2.86542 -5.841067,6.2819 -2.645011,3.41647 -4.518561,7.38399 5.510441,11.13109 15.925174,17.68851 10.414733,6.55743 22.868329,6.55743 2.204177,0 4.298149,-0.27552 2.09396,-0.27553 4.29814,-0.60615 l -3.96752,-4.18794 q -1.2123,0.33063 -2.314384,0.49594 -1.102088,0.16532 -2.314385,0.16532 -8.265661,0 -14.051624,-5.78597 -5.785963,-5.78596 -5.785963,-14.05162 0,-1.2123 0.165313,-2.31439 0.165314,-1.10208 0.49594,-2.31438 z M 56.61253,46.66265 Z m -16.641532,8.26566 z"
    style="stroke-width:0.110209" 
	/>
</svg>
